<svg version="1.0" xmlns="http://www.w3.org/2000/svg" width="48" height="48" viewBox="0 0 300.000000 300.000000" preserveAspectRatio="xMidYMid meet">
  <g transform="translate(0.000000,300.000000) scale(0.100000,-0.100000)" fill="#003f5d" stroke="none">
    <path d="M0 1500 l0 -1500 1500 0 1500 0 0 1500 0 1500 -1500 0 -1500 0 0
    -1500z m2550 0 l0 -1050 -1050 0 -1050 0 0 1050 0 1050 1050 0 1050 0 0 -1050z"/>
    <path d="M490 2522 c-7 -3 -10 -351 -10 -1023 l0 -1019 123 0 c67 0 327 0 577
    -1 250 0 464 0 474 0 18 1 17 4 -7 29 l-27 28 5 158 c3 97 9 164 16 172 6 8
    30 14 53 15 l41 1 -33 8 c-43 10 -100 56 -123 100 -26 48 -25 131 2 188 58
    118 229 130 308 22 56 -78 54 -164 -7 -245 -34 -45 -43 -51 -92 -61 l-55 -10
    45 -12 c52 -14 78 -34 114 -87 14 -21 26 -33 26 -26 0 6 19 32 41 56 43 47 88
    66 157 67 50 0 62 -3 99 -29 39 -28 39 -28 46 -3 3 11 15 24 28 28 23 9 23 9
    -4 16 -15 3 -27 13 -27 21 0 21 -9 19 -29 -7 -28 -34 -60 -17 -111 58 -25 37
    -57 81 -72 98 l-28 31 1 -81 c1 -88 -11 -124 -41 -124 -33 0 -40 33 -40 194 0
    127 3 157 16 170 8 9 20 16 25 16 11 0 69 -60 69 -72 0 -3 6 -13 13 -20 7 -7
    30 -38 52 -68 l40 -55 3 90 c2 49 8 95 14 102 15 19 55 16 67 -4 8 -16 11 -15
    28 6 17 21 27 23 111 23 92 1 122 -9 122 -38 0 -30 -29 -42 -95 -40 l-66 3 3
    -41 3 -41 59 -5 c109 -9 99 -70 -11 -70 l-53 0 0 -34 c0 -39 9 -44 84 -44 36
    0 54 -6 70 -22 l21 -21 -25 -20 c-23 -18 -24 -20 -7 -30 9 -5 17 -19 17 -30 0
    -27 -28 -37 -111 -38 -39 -1 -48 -5 -52 -23 -11 -42 8 -58 73 -58 50 0 60 -3
    65 -20 11 -36 -9 -55 -62 -56 -71 -2 -70 -2 -75 -27 -8 -41 0 -47 66 -47 73 0
    102 -15 91 -49 -4 -14 -18 -24 -36 -28 -16 -3 -29 -10 -29 -15 0 -6 10 -8 23
    -4 12 3 32 6 43 6 l22 0 -1 1020 c-1 707 -4 1020 -11 1021 -47 2 -2008 3
    -2016 1z m757 -1267 c30 -13 37 -13 50 0 13 13 45 17 143 17 105 0 120 -2 130
    -23 16 -29 -11 -57 -59 -61 l-36 -3 -2 -124 c-2 -153 -6 -171 -38 -171 -14 0
    -29 8 -35 19 -5 11 -10 78 -10 150 l0 131 -27 1 c-16 0 -38 2 -50 5 -12 2 -23
    -2 -27 -11 -7 -19 -53 -19 -73 0 -23 24 -113 8 -113 -20 0 -17 20 -33 50 -39
    49 -9 115 -37 137 -58 46 -43 23 -131 -44 -166 -73 -39 -251 18 -229 73 10 26
    34 28 79 6 72 -35 137 -23 137 24 0 22 -9 30 -32 26 -5 0 -8 4 -8 9 0 6 -14
    10 -30 10 -39 0 -104 33 -124 62 -39 55 2 135 79 156 38 11 87 6 132 -13z
    m211 -408 c26 -27 32 -41 33 -84 1 -31 -3 -59 -11 -68 -10 -12 -10 -21 -1 -41
    6 -14 11 -36 11 -50 0 -14 5 -35 11 -46 9 -17 7 -24 -11 -42 l-21 -21 -29 32
    c-16 18 -27 39 -24 47 6 16 -14 61 -23 52 -3 -3 -14 -1 -24 4 -21 12 -51 -12
    -43 -34 3 -8 0 -32 -6 -55 -9 -34 -15 -41 -35 -41 -13 0 -29 8 -34 18 -11 21
    -17 104 -9 117 3 6 6 56 5 112 -1 130 1 133 102 133 74 0 78 -1 109 -33z m135
    15 c14 -15 16 -43 15 -176 -1 -145 -2 -159 -21 -177 -20 -19 -21 -19 -43 2
    -23 21 -23 25 -17 178 3 86 9 164 14 174 12 22 32 22 52 -1z"/>
    <path d="M1105 1241 c-36 -15 -57 -47 -53 -82 4 -41 35 -64 113 -84 66 -17 95
    -38 95 -67 0 -73 -115 -101 -186 -46 -17 14 -29 17 -35 11 -17 -17 58 -56 115
    -61 41 -3 58 1 86 20 86 58 50 145 -68 164 -104 17 -135 80 -58 118 42 20 50
    19 139 -19 12 -5 17 -3 17 8 0 32 -115 58 -165 38z"/>
    <path d="M1310 1235 c0 -12 13 -15 55 -15 l55 0 0 -155 c0 -133 2 -155 15
    -155 14 0 16 20 13 155 l-3 155 58 0 c44 0 57 3 57 15 0 13 -21 15 -125 15
    -104 0 -125 -2 -125 -15z"/>
    <path d="M1270 685 c0 -144 2 -165 16 -165 13 0 15 11 12 70 l-3 70 50 0 c66
    0 91 -18 98 -70 6 -44 24 -73 39 -64 6 4 6 10 -1 17 -6 6 -11 26 -11 43 0 20
    -9 44 -23 60 l-23 27 23 23 c33 33 32 96 -2 129 -21 22 -33 25 -100 25 l-75 0
    0 -165z m155 120 c31 -30 32 -62 3 -92 -17 -19 -32 -23 -77 -23 l-56 0 2 67
    c1 38 2 69 2 71 1 1 24 2 51 2 41 0 56 -5 75 -25z"/>
    <path d="M1339 803 c-12 -3 -15 -13 -12 -41 5 -47 12 -54 51 -46 55 11 53 72
    -3 86 -11 3 -27 4 -36 1z"/>
    <path d="M1556 853 c-3 -3 -6 -80 -6 -170 0 -138 2 -163 15 -163 13 0 15 25
    15 164 0 150 -5 187 -24 169z"/>
    <path d="M1675 1234 c-46 -24 -63 -43 -81 -90 -69 -180 157 -320 272 -168 25
    33 29 46 29 105 0 53 -5 74 -21 96 -51 68 -132 92 -199 57z m136 -30 c40 -20
    62 -76 57 -142 -4 -48 -10 -60 -41 -89 -35 -32 -53 -37 -107 -33 -108 8 -149
    174 -62 253 40 36 95 40 153 11z"/>
    <path d="M1668 1159 c-41 -43 -43 -54 -28 -111 21 -76 103 -106 165 -61 81 60
    39 204 -62 210 -32 1 -43 -4 -75 -38z"/>
    <path d="M1970 1245 c-1 -3 -1 -78 -1 -167 -1 -120 3 -163 11 -163 9 0 12 38
    11 140 -1 81 2 136 7 130 5 -5 51 -70 103 -142 51 -73 100 -133 107 -133 10 0
    12 36 10 165 -4 207 -21 227 -28 32 l-5 -138 -100 140 c-88 124 -114 154 -115
    136z"/>
    <path d="M2287 1243 c-4 -3 -7 -80 -7 -170 l0 -163 101 0 c76 0 100 3 96 13
    -3 8 -29 12 -85 12 l-82 -1 0 69 0 68 72 -2 c48 -2 73 2 76 9 3 9 -19 12 -75
    12 l-78 0 3 65 4 65 84 0 c68 0 84 3 84 15 0 12 -17 15 -93 15 -52 0 -97 -3
    -100 -7z"/>
    <path d="M2045 846 c-71 -32 -109 -95 -103 -171 5 -65 34 -106 94 -135 53 -26
    126 -24 169 4 24 16 26 21 23 84 l-3 67 -64 0 c-43 0 -66 -4 -68 -12 -4 -10
    11 -13 51 -13 l56 0 0 -50 c0 -54 -8 -63 -70 -75 -42 -7 -113 26 -144 67 -41
    56 -16 160 47 198 38 24 111 26 147 5 30 -17 50 -19 50 -5 0 17 -81 50 -120
    49 -19 0 -48 -6 -65 -13z"/>
    <path d="M2284 851 c-2 -2 -4 -78 -4 -168 l0 -163 100 0 c60 0 100 4 100 10 0
    6 -35 10 -85 10 l-85 0 0 65 0 65 75 0 c60 0 75 3 75 15 0 12 -15 15 -75 15
    l-75 0 0 65 0 65 86 0 c57 0 84 4 82 11 -3 10 -184 19 -194 10z"/>
    <path d="M1650 686 l0 -166 57 0 c37 0 72 7 100 21 105 51 116 213 19 282 -23
    16 -49 23 -103 26 l-73 3 0 -166z m158 117 c90 -66 74 -206 -28 -247 -22 -9
    -54 -16 -70 -16 l-30 0 0 146 0 147 51 -5 c28 -3 63 -14 77 -25z"/>
    <path d="M1720 801 c-12 -5 -16 -27 -17 -109 -2 -101 -1 -103 23 -112 54 -21
    114 36 110 106 -3 68 -69 134 -116 115z"/>
    <path d="M2042 781 c-63 -47 -69 -122 -12 -176 50 -48 140 -42 140 9 0 20 -6
    24 -41 29 -56 7 -73 32 -42 62 12 13 30 16 77 13 34 -2 68 -6 76 -8 11 -4 14
    4 13 35 -1 22 -2 41 -2 42 -1 1 -11 -1 -23 -6 -16 -6 -33 -3 -58 10 -48 26
    -80 24 -128 -10z"/>
    <path d="M1889 581 c-12 -21 -33 -45 -48 -52 -14 -8 -28 -17 -31 -21 -3 -4
    -16 -9 -28 -11 -29 -4 -40 -17 -16 -18 150 -6 247 -6 282 -2 44 6 48 14 10 20
    -12 2 -25 7 -28 11 -3 4 -17 13 -31 20 -14 8 -37 31 -50 53 -13 21 -27 39 -31
    39 -4 0 -17 -18 -29 -39z"/>
    <path d="M2205 516 c-22 -13 -43 -22 -47 -20 -5 3 -8 0 -8 -5 0 -12 9 -14 91
    -15 51 -1 56 1 48 17 -6 9 -14 17 -19 17 -6 0 -10 7 -10 15 0 20 -8 19 -55 -9z"/>
    <path d="M2396 485 c-3 -8 -1 -15 4 -15 6 0 10 7 10 15 0 8 -2 15 -4 15 -2 0
    -6 -7 -10 -15z"/>
    <path d="M2108 483 c7 -3 16 -2 19 1 4 3 -2 6 -13 5 -11 0 -14 -3 -6 -6z"/>
    <path d="M2310 480 c0 -6 13 -8 32 -5 46 8 48 15 5 15 -20 0 -37 -5 -37 -10z"/>
  </g>
</svg>
