<svg  version="1.0" xmlns="http://www.w3.org/2000/svg"  width="180.000000pt" height="180.000000pt" viewBox="0 0 180.000000 180.000000"  preserveAspectRatio="xMidYMid meet">
  <g transform="translate(0.000000,180.000000) scale(0.100000,-0.100000)" fill="#e72c2a" stroke="none">
  <path d="M799 1790 c-312 -38 -573 -226 -708 -511 -116 -242 -116 -516 0 -758 51 -107 110 -190 190 -267 234 -222 554 -301 867 -214 243 68 448 244 561 481 116 242 116 516 0 758 -117 246 -328 422 -583 486 -107 27 -234 36 -327 25z m-149 -885 l0 -395 -125 0 -125 0 0 395 0 395 125 0 125 0 0 -395z m380 0 l0 -395 -130 0 -130 0 0 395 0 395 130 0 130 0 0 -395z m253 277 l117 -117 0 -278 0 -277 -125 0 -125 0 0 395 c0 217 3 395 8 395 4 0 60 -53 125 -118z"/>
  </g>
</svg>
