<svg version="1.0" xmlns="http://www.w3.org/2000/svg" width="48" height="48" viewBox="0 0 300.000000 300.000000" preserveAspectRatio="xMidYMid meet">
  <g transform="translate(0.000000,300.000000) scale(0.100000,-0.100000)" fill="#000000" stroke="none">
    <path d="M0 1500 l0 -1500 1500 0 1500 0 0 1500 0 1500 -1500 0 -1500 0 0 -1500z m1528 1097 c8 -10 6 -13 -9 -14 -10 -1 -19 5 -19 13 0 17 14 18 28 1z m-79 -20 c-2 -2 -20 -14 -39 -26 l-35 -23 30 26 c17 14 34 26 39 26 5 0 7 -1 5 -3z m167 -29 c4 -7 3 -8 -4 -4 -7 4 -12 2 -12 -5 0 -6 8 -9 19 -6 14 3 18 1 14 -9 -4 -10 -10 -11 -24 -3 -20 10 -24 21 -12 32 9 9 11 9 19 -5z m147 -85 c48 -30 87 -56 87 -59 0 -6 -1 -5 -85 48 -33 21 -61 33 -63 28 -4 -11 -62 16 -62 29 0 13 12 21 24 14 6 -4 50 -31 99 -60z m117 -68 c4 3 13 -2 20 -10 7 -8 16 -15 20 -15 4 0 45 -23 91 -51 46 -28 120 -69 164 -91 93 -48 89 -62 -6 -19 -135 61 -406 127 -594 144 -35 3 -34 4 12 5 29 1 83 -3 120 -8 171 -26 254 -36 258 -32 6 6 -32 35 -72 56 -18 9 -33 22 -32 29 0 9 2 9 6 -1 2 -6 8 -10 13 -7z m-755 -75 c-11 -5 -27 -9 -35 -9 -9 0 -8 4 5 9 11 5 27 9 35 9 9 0 8 -4 -5 -9z m565 -20 c11 -7 -5 -10 -51 -10 -45 0 -70 -5 -78 -14 -10 -12 -16 -12 -40 1 -25 15 -34 15 -122 -6 -135 -31 -151 -34 -109 -14 82 37 362 67 400 43z m-873 -170 c29 -23 53 -42 53 -44 0 -2 -11 -1 -25 1 -23 5 -65 -22 -57 -36 7 -13 -11 -102 -18 -94 -8 8 -19 213 -11 213 2 0 28 -18 58 -40z m183 -115 c19 -12 85 -50 145 -85 61 -35 158 -94 216 -131 59 -38 114 -71 123 -75 14 -5 16 -25 16 -132 0 -158 -19 -156 -28 3 -3 59 -10 111 -16 116 -58 48 -71 57 -79 52 -6 -3 -7 -1 -3 5 4 7 1 12 -8 12 -8 0 -37 12 -63 27 -150 84 -227 129 -283 164 -26 16 -56 30 -68 32 -28 4 -36 13 -29 31 7 18 24 13 77 -19z m809 -82 c82 -46 141 -86 166 -113 19 -21 19 -21 -1 -14 -10 4 -62 34 -114 67 -52 33 -110 69 -127 79 -18 11 -33 22 -33 25 0 9 46 -10 109 -44z m-1025 -99 c2 -22 0 -47 -5 -55 -6 -9 -9 6 -9 45 0 67 6 71 14 10z m998 -9 c112 -39 134 -51 73 -41 -32 5 -27 1 29 -21 79 -30 74 -44 -6 -17 -63 20 -204 89 -213 104 -10 16 8 12 117 -25z m463 -513 c-2 -3 -32 3 -65 12 -141 40 -265 31 -386 -29 -127 -62 -233 -202 -268 -356 -8 -34 -16 -62 -18 -64 -5 -5 -193 115 -196 125 -2 6 -7 8 -12 5 -10 -6 -7 21 3 31 3 4 22 -7 42 -25 20 -17 52 -40 73 -51 20 -11 47 -27 58 -36 22 -15 22 -14 29 68 4 46 11 93 16 105 4 12 46 60 91 106 122 123 229 179 368 193 36 3 66 7 68 9 2 1 -20 19 -48 40 -84 61 -56 49 53 -24 119 -79 127 -83 150 -66 13 10 17 26 16 66 -1 30 -1 74 -1 99 1 25 1 52 1 60 -1 63 11 239 18 255 5 12 9 -91 11 -249 1 -148 0 -271 -3 -274z m-645 408 c30 -13 67 -32 82 -42 14 -10 29 -18 32 -18 4 0 17 -9 29 -21 12 -11 -39 9 -113 46 -74 36 -139 71 -145 76 -10 11 3 6 115 -41z m474 9 c-7 -12 -54 -12 -54 0 0 5 6 11 13 14 18 6 48 -4 41 -14z m-1269 -93 c11 -8 12 -20 6 -49 -5 -22 -7 -50 -5 -64 3 -15 1 -22 -6 -18 -5 3 -10 -1 -10 -9 0 -9 -4 -16 -10 -16 -12 0 -14 209 -2 237 5 13 8 5 10 -26 2 -25 10 -50 17 -55z m5 -150 c0 -3 -6 -11 -14 -19 -14 -13 -10 -60 9 -112 5 -14 4 -16 -3 -6 -6 8 -12 9 -16 3 -8 -13 41 -72 60 -72 8 0 22 -8 32 -18 27 -27 88 -63 96 -55 3 3 17 -4 31 -17 14 -13 32 -25 40 -26 8 -1 29 -13 47 -26 54 -38 142 -91 154 -91 14 0 38 -37 24 -37 -5 0 -10 5 -10 11 0 5 -4 7 -10 4 -5 -3 -10 -1 -10 6 0 7 -3 10 -6 7 -5 -5 -213 108 -239 130 -5 4 -19 11 -30 16 -11 4 -64 34 -117 68 -88 54 -98 63 -98 89 0 17 4 28 8 25 5 -3 10 18 11 46 1 35 7 55 19 64 19 15 22 16 22 10z m130 -68 c-1 -68 -2 -71 -15 -48 -7 14 -9 27 -4 28 5 2 9 24 9 48 0 24 2 44 5 44 3 0 5 -33 5 -72z m-68 -69 c-3 -19 -7 -26 -12 -19 -8 14 -2 50 9 50 4 0 5 -14 3 -31z m1378 -756 c0 -5 -29 -24 -65 -43 -36 -19 -65 -38 -65 -42 0 -3 32 -29 70 -58 39 -29 70 -54 70 -56 0 -2 -18 -4 -39 -4 -32 0 -50 9 -96 46 -50 41 -59 45 -81 35 -19 -8 -24 -18 -24 -46 0 -33 -2 -36 -26 -33 -26 3 -26 3 -28 101 l-1 97 28 0 c25 0 27 -3 27 -45 l0 -45 67 42 c41 26 85 45 113 49 25 3 46 7 48 8 1 0 2 -2 2 -6z m-1259 -13 c23 -13 25 -53 3 -71 -14 -11 -14 -13 0 -21 22 -13 21 -74 -1 -83 -10 -5 -69 -9 -130 -11 l-113 -3 0 100 0 99 111 0 c61 0 119 -5 130 -10z m128 -62 l-2 -73 81 -3 c78 -3 82 -4 82 -26 0 -23 -1 -23 -110 -22 l-110 1 0 98 0 97 31 0 30 0 -2 -72z m456 47 c35 -34 35 -102 1 -142 -23 -27 -27 -28 -121 -28 -94 0 -98 1 -121 28 -34 40 -34 108 1 142 22 23 32 25 120 25 88 0 98 -2 120 -25z m319 4 c14 -11 26 -27 26 -35 0 -19 -54 -18 -70 1 -15 18 -120 21 -138 3 -15 -15 -16 -84 -1 -93 16 -11 128 -8 142 3 20 15 67 24 67 12 0 -42 -54 -70 -136 -70 -107 0 -144 26 -144 101 0 40 5 55 25 74 22 23 32 25 113 25 75 0 93 -3 116 -21z"></path> <path d="M1980 1379 c-34 -6 -33 -6 13 -8 46 -1 59 3 35 11 -7 2 -29 1 -48 -3z"></path> <path d="M1555 1114 c-9 -14 -15 -27 -13 -30 2 -2 12 10 22 26 21 37 15 40 -9 4z"></path> <path d="M802 533 c3 -15 16 -19 76 -21 67 -3 72 -1 72 18 0 18 -6 20 -76 20 -66 0 -75 -2 -72 -17z"></path> <path d="M804 465 c-10 -26 6 -31 84 -27 62 3 73 6 70 20 -5 25 -145 31 -154 7z"></path> <path d="M1381 536 c-7 -8 -11 -32 -9 -53 3 -36 5 -38 43 -43 22 -3 58 -3 80 0 38 5 40 7 43 43 5 56 -10 67 -83 67 -42 0 -66 -5 -74 -14z"></path>
  </g>
</svg>
